<?xml version="1.0" standalone="no"?>
<!DOCTYPE svg PUBLIC "-//W3C//DTD SVG 20010904//EN"
 "http://www.w3.org/TR/2001/REC-SVG-20010904/DTD/svg10.dtd">
<svg version="1.0" xmlns="http://www.w3.org/2000/svg"
 width="512.000000pt" height="512.000000pt" viewBox="0 0 512.000000 512.000000"
 preserveAspectRatio="xMidYMid meet">

<g transform="translate(0.000000,512.000000) scale(0.100000,-0.100000)"
fill="#000000" stroke="none">
<path d="M1044 4951 c-48 -12 -133 -62 -160 -94 -46 -54 -75 -125 -84 -204
-13 -119 -53 -159 -176 -174 -55 -7 -96 -19 -137 -41 -65 -35 -96 -67 -135
-142 l-27 -51 0 -445 0 -445 36 -65 c39 -71 100 -125 170 -151 38 -14 44 -21
63 -75 12 -33 37 -82 56 -108 38 -52 131 -119 191 -137 l39 -12 0 -124 0 -123
-148 0 c-222 0 -328 -36 -435 -149 -108 -113 -137 -205 -137 -437 l0 -162 314
-384 313 -383 -116 -2 c-64 -2 -126 -5 -139 -8 -15 -4 -52 -51 -117 -148 l-95
-142 0 -268 0 -268 25 -24 24 -25 1231 0 1231 0 24 25 25 24 0 268 0 268 -95
142 c-65 97 -102 144 -117 148 -13 3 -75 6 -139 8 l-116 2 313 383 314 384 0
152 c0 85 -5 177 -10 207 -25 131 -124 266 -239 328 -92 49 -157 61 -323 61
l-148 0 0 123 0 124 39 12 c103 30 214 142 247 246 17 52 20 56 78 83 83 39
117 70 157 144 l34 63 0 445 0 445 -27 51 c-39 75 -70 107 -135 142 -41 21
-82 34 -136 41 -59 7 -86 16 -112 35 -46 36 -56 56 -67 144 -15 127 -68 207
-170 263 l-63 34 -200 0 c-186 0 -203 -2 -248 -22 -26 -13 -63 -35 -82 -49
l-35 -26 -35 26 c-80 62 -115 70 -310 72 -99 2 -194 -1 -211 -5z m361 -162
c37 -10 71 -40 145 -126 26 -31 74 -30 103 2 12 13 35 41 52 61 50 63 88 74
258 74 168 0 199 -8 242 -64 20 -27 29 -53 36 -112 10 -79 39 -148 83 -201 41
-48 131 -91 217 -101 90 -11 109 -20 146 -69 l28 -36 0 -418 c0 -406 -1 -418
-21 -445 -33 -44 -66 -64 -122 -73 -30 -4 -60 -15 -68 -23 -9 -8 -24 -47 -34
-87 -21 -84 -57 -144 -103 -171 -18 -11 -35 -20 -39 -20 -5 0 -8 230 -8 510
l0 510 80 0 80 0 0 80 0 79 -422 3 c-528 4 -488 -11 -630 228 -89 149 -107
170 -148 170 -15 0 -37 -8 -48 -17 -12 -10 -51 -93 -88 -186 -41 -105 -74
-173 -87 -182 -17 -12 -56 -15 -179 -15 l-158 0 0 -80 0 -80 80 0 80 0 0 -510
c0 -280 -3 -510 -8 -510 -19 0 -82 53 -102 85 -12 20 -30 68 -41 107 -10 39
-24 78 -33 86 -8 8 -38 18 -66 23 -31 5 -66 19 -87 35 -64 48 -64 50 -61 499
3 390 4 405 24 431 37 50 67 65 149 75 80 10 149 38 202 83 41 34 90 131 98
191 12 102 16 115 42 146 15 17 41 38 58 45 38 17 293 19 350 3z m-37 -607
c42 -64 99 -112 178 -149 l59 -28 278 -3 277 -3 0 -383 c0 -228 -4 -406 -11
-442 -17 -97 -78 -211 -154 -287 -218 -220 -567 -221 -788 -2 -77 76 -138 190
-156 289 -7 36 -11 214 -11 442 l0 382 49 17 c76 25 123 78 167 191 l38 95 20
-33 c11 -18 35 -57 54 -86z m-149 -1511 c269 -172 631 -138 867 82 l74 69 0
-185 c0 -252 -24 -231 262 -237 l223 -5 63 -34 c70 -38 101 -70 140 -145 24
-47 26 -63 30 -198 l4 -147 -338 -415 -339 -415 -605 0 -605 0 -339 415 -338
415 4 147 c4 135 6 151 30 198 39 75 70 107 140 145 l63 34 223 5 c286 6 262
-15 262 238 l0 186 58 -56 c31 -31 86 -74 121 -97z m1440 -1884 l61 -93 0
-187 0 -187 -1120 0 -1120 0 0 187 0 187 61 93 62 93 997 0 997 0 62 -93z"/>
<path d="M1225 3815 c-50 -49 -15 -135 55 -135 41 0 80 39 80 80 0 41 -39 80
-80 80 -19 0 -40 -9 -55 -25z"/>
<path d="M1600 3705 c0 -131 -1 -137 -25 -160 -20 -21 -34 -25 -80 -25 l-55 0
0 -80 0 -80 58 0 c87 0 144 23 195 80 57 64 67 101 67 264 l0 136 -80 0 -80 0
0 -135z"/>
<path d="M1865 3815 c-50 -49 -15 -135 55 -135 41 0 80 39 80 80 0 41 -39 80
-80 80 -19 0 -40 -9 -55 -25z"/>
<path d="M1275 3198 c-33 -17 -62 -32 -64 -34 -8 -7 55 -87 94 -119 80 -66
123 -78 298 -83 l157 -4 0 81 0 81 -122 0 c-153 0 -191 10 -247 66 -24 24 -46
44 -50 44 -3 -1 -33 -15 -66 -32z"/>
<path d="M1825 2443 c-21 -144 -121 -363 -208 -460 l-20 -23 -61 59 c-121 116
-205 141 -468 141 l-188 0 0 -79 0 -79 203 -4 c196 -3 203 -4 253 -30 76 -40
107 -70 144 -140 32 -60 34 -69 38 -185 l4 -123 78 0 78 0 4 123 c4 99 9 131
26 167 34 71 75 113 144 151 l63 34 203 3 202 4 0 79 0 80 -205 -3 c-113 -2
-205 -1 -205 1 0 2 11 34 24 71 22 59 56 201 56 229 0 10 -19 14 -111 26 l-47
6 -7 -48z"/>
<path d="M2560 4880 l0 -80 1062 0 1063 0 -120 -120 -120 -120 -782 0 -783 0
0 -80 0 -80 760 0 760 0 0 -801 c0 -637 -3 -799 -12 -792 -7 4 -109 76 -227
160 -131 94 -223 153 -238 153 -13 0 -137 -60 -276 -134 -138 -74 -273 -144
-298 -156 l-47 -23 -180 162 c-100 88 -183 161 -186 161 -7 0 -88 -87 -98
-105 -5 -8 47 -61 152 -154 88 -78 160 -144 160 -146 0 -2 -49 -29 -110 -61
-60 -31 -110 -61 -110 -66 0 -20 61 -128 73 -128 6 0 212 106 456 235 244 129
448 235 454 235 5 0 117 -77 248 -170 l239 -171 0 -299 0 -300 -600 0 -600 0
0 -80 0 -80 623 0 622 0 120 -120 120 -120 -823 0 -822 0 0 -80 0 -80 935 0
936 0 24 25 25 24 0 1711 0 1711 -25 24 -24 25 -1176 0 -1175 0 0 -80z m2240
-1682 l0 -1483 -120 120 -120 120 0 1245 0 1245 117 117 c65 65 119 118 120
118 2 0 3 -667 3 -1482z"/>
<path d="M3346 3990 c-63 -16 -153 -70 -197 -117 -22 -24 -55 -74 -72 -111
-29 -61 -32 -76 -32 -163 0 -90 2 -99 37 -171 45 -91 103 -147 196 -191 61
-29 76 -32 162 -32 86 0 101 3 162 32 93 44 151 100 196 191 35 72 37 81 37
172 0 91 -2 100 -37 172 -68 136 -188 217 -336 224 -42 2 -94 -1 -116 -6z
m168 -162 c55 -16 138 -99 154 -154 28 -94 -1 -191 -77 -255 -98 -85 -222 -78
-316 16 -102 101 -102 229 0 330 70 71 145 90 239 63z"/>
</g>
</svg>
