<?xml version="1.0" standalone="no"?>
<!DOCTYPE svg PUBLIC "-//W3C//DTD SVG 20010904//EN"
 "http://www.w3.org/TR/2001/REC-SVG-20010904/DTD/svg10.dtd">
<svg version="1.0" xmlns="http://www.w3.org/2000/svg"
 width="512.000000pt" height="512.000000pt" viewBox="0 0 512.000000 512.000000"
 preserveAspectRatio="xMidYMid meet">

<g transform="translate(0.000000,512.000000) scale(0.100000,-0.100000)"
fill="#000000" stroke="none">
<path d="M4195 5001 c-51 -31 -64 -54 -89 -161 -100 -417 -126 -987 -60 -1331
l14 -78 -29 -47 c-41 -63 -55 -136 -42 -211 9 -49 8 -69 -9 -128 -24 -83 -15
-130 30 -168 40 -34 74 -40 156 -27 172 27 275 123 305 286 14 74 6 201 -15
241 -14 28 -14 39 4 129 42 219 49 523 20 839 -22 236 -71 570 -89 600 -40 69
-132 96 -196 56z m93 -98 c35 -30 87 -477 99 -843 8 -280 -14 -571 -47 -604
-6 -6 -44 -11 -86 -11 -105 0 -102 -5 -124 230 -13 134 -12 533 0 670 29 310
89 575 130 575 4 0 17 -8 28 -17z m-21 -1563 c107 0 107 0 106 -110 -2 -171
-78 -260 -233 -277 -72 -7 -81 5 -55 70 14 34 16 59 10 139 -6 85 -4 102 14
144 18 40 24 46 43 40 13 -3 64 -6 115 -6z"/>
<path d="M637 4512 c-15 -17 -17 -62 -17 -448 l0 -429 -133 -43 c-145 -47
-332 -124 -359 -149 -17 -15 -18 -96 -16 -1671 3 -1552 4 -1655 20 -1666 13
-8 54 -2 170 27 442 108 760 144 1188 134 351 -8 606 -44 933 -131 l128 -34
152 38 c348 89 567 119 922 127 434 10 749 -26 1193 -134 116 -29 157 -35 170
-27 16 11 17 114 20 1664 1 1193 -1 1657 -9 1666 -12 15 -85 50 -209 100 -95
39 -124 36 -136 -12 -8 -33 13 -54 81 -79 28 -10 78 -31 113 -46 l62 -28 0
-1346 c0 -740 -1 -1345 -3 -1345 -1 0 -39 16 -84 35 -202 84 -495 159 -733
186 -138 15 -446 15 -590 0 -249 -27 -549 -97 -774 -181 -60 -22 -110 -40
-112 -40 -2 0 -4 605 -4 1346 l0 1345 53 24 c235 103 705 205 1027 221 74 4
141 11 148 17 15 12 16 59 0 75 -24 24 -295 10 -538 -29 -211 -33 -475 -106
-677 -187 -40 -16 -52 -18 -56 -8 -3 7 -47 68 -97 136 -383 507 -928 802
-1658 894 -155 20 -155 20 -175 -2z m243 -112 c677 -100 1234 -429 1566 -926
l54 -81 -2 -1301 -3 -1302 -60 81 c-70 96 -220 250 -325 335 -339 275 -787
454 -1267 505 l-113 12 0 1349 c0 741 3 1348 8 1348 4 0 68 -9 142 -20z m-260
-1808 c0 -759 2 -932 13 -946 11 -15 44 -23 158 -38 447 -59 791 -178 1086
-375 129 -86 228 -170 348 -295 88 -90 203 -228 192 -228 -2 0 -37 11 -78 25
-204 71 -501 140 -714 166 -165 21 -504 16 -674 -10 -233 -35 -520 -117 -724
-206 -16 -7 -17 59 -15 1341 l3 1347 70 30 c82 36 304 116 323 116 9 1 12
-191 12 -927z m914 -1792 c258 -22 468 -64 711 -145 88 -29 181 -62 208 -74
l47 -20 0 -56 c0 -30 -4 -55 -8 -55 -5 0 -42 11 -83 25 -109 37 -366 100 -507
124 -248 42 -410 53 -672 48 -253 -6 -351 -16 -575 -64 -97 -20 -344 -94 -427
-128 -16 -6 -18 0 -18 50 l0 56 73 34 c40 18 132 54 204 79 325 111 692 155
1047 126z m2621 -15 c227 -30 500 -106 679 -189 l76 -35 0 -56 c0 -50 -2 -56
-17 -50 -84 34 -331 108 -428 129 -249 52 -341 61 -645 61 -179 0 -324 -5
-390 -13 -245 -31 -490 -83 -696 -147 -62 -19 -115 -35 -118 -35 -3 0 -6 26
-6 58 l0 58 113 41 c276 102 563 167 852 193 137 12 435 4 580 -15z m-2497
-261 c245 -25 479 -74 725 -151 l117 -36 0 -54 c0 -31 -4 -53 -11 -53 -5 0
-63 13 -127 29 -577 145 -1137 158 -1782 41 -63 -12 -162 -32 -220 -46 -58
-13 -115 -26 -128 -29 -22 -5 -23 -4 -20 52 l3 58 95 37 c394 153 846 204
1348 152z m2515 0 c225 -25 443 -77 637 -152 l95 -37 3 -59 c3 -52 1 -57 -15
-52 -346 104 -765 152 -1250 143 -374 -7 -621 -36 -906 -107 -65 -17 -120 -30
-123 -30 -2 0 -4 24 -4 53 l0 54 118 36 c486 151 981 203 1445 151z"/>
<path d="M1182 3948 c-16 -16 -15 -63 1 -76 6 -5 30 -15 52 -21 47 -13 85 6
85 42 0 33 -12 46 -51 57 -45 13 -72 13 -87 -2z"/>
<path d="M1557 3812 c-21 -23 -22 -56 -3 -71 8 -7 52 -31 98 -55 149 -76 373
-240 477 -350 41 -42 81 -48 105 -15 18 27 12 44 -33 93 -106 113 -347 289
-513 372 -99 50 -108 51 -131 26z"/>
<path d="M1183 3559 c-7 -7 -13 -25 -13 -40 0 -35 13 -44 90 -64 157 -41 370
-140 540 -252 110 -73 285 -209 334 -262 47 -50 106 -39 106 20 0 20 -16 41
-63 85 -92 85 -199 169 -312 243 -249 164 -637 317 -682 270z"/>
<path d="M1182 3168 c-16 -16 -15 -63 1 -75 6 -6 55 -22 107 -37 270 -77 585
-262 827 -488 70 -65 123 -64 123 3 0 21 -17 43 -72 94 -222 206 -516 382
-793 474 -125 42 -173 49 -193 29z"/>
<path d="M1182 2818 c-17 -17 -17 -471 1 -486 6 -6 41 -21 77 -35 76 -28 197
-88 251 -124 46 -30 85 -25 99 13 6 14 10 118 10 230 l0 206 -27 27 c-36 36
-144 95 -258 143 -95 39 -133 46 -153 26z m196 -161 c146 -73 132 -50 132
-214 l0 -142 -92 43 c-51 23 -105 48 -120 54 l-28 12 0 145 c0 97 4 145 11
145 6 0 50 -19 97 -43z"/>
<path d="M1792 2514 c-43 -30 -26 -63 59 -119 99 -65 148 -104 241 -192 77
-73 109 -88 136 -61 28 28 13 62 -55 129 -110 107 -313 259 -347 259 -6 0 -22
-7 -34 -16z"/>
<path d="M1787 2122 c-35 -38 -22 -57 86 -131 57 -39 146 -111 200 -161 97
-90 128 -105 155 -78 7 7 12 24 12 38 0 42 -170 199 -324 299 -86 56 -104 60
-129 33z"/>
<path d="M3371 3030 c-113 -24 -209 -117 -300 -290 -122 -236 -152 -491 -86
-745 53 -204 157 -378 315 -528 182 -172 379 -261 639 -287 166 -17 349 17
469 87 101 59 194 181 238 313 15 43 19 83 18 185 -1 209 -38 318 -138 413
-74 70 -127 97 -256 132 -154 41 -246 87 -328 165 -82 77 -126 148 -170 274
-39 114 -70 169 -114 207 -74 62 -193 93 -287 74z m143 -112 c66 -20 121 -83
147 -170 48 -157 108 -257 216 -358 93 -86 197 -140 345 -176 126 -31 185 -62
248 -131 40 -43 51 -65 68 -130 29 -110 34 -177 22 -263 -26 -185 -138 -320
-317 -382 -60 -20 -86 -23 -218 -22 -177 1 -267 20 -410 88 -109 52 -166 93
-258 183 -123 121 -212 270 -263 440 -36 119 -44 320 -19 444 32 161 115 330
206 421 65 65 141 83 233 56z"/>
<path d="M3317 2576 c-50 -19 -76 -42 -98 -91 -57 -124 26 -255 160 -255 58 0
93 15 133 57 128 135 -20 354 -195 289z m112 -114 c33 -26 31 -79 -3 -109 -30
-26 -44 -28 -80 -12 -33 15 -50 57 -37 91 18 48 80 63 120 30z"/>
<path d="M3469 2087 c-27 -14 -57 -42 -76 -71 -28 -42 -33 -57 -33 -110 0
-120 73 -205 185 -214 197 -16 311 210 177 351 -66 70 -170 88 -253 44z m173
-114 c55 -53 24 -161 -51 -178 -61 -13 -131 43 -131 105 0 36 30 81 63 96 42
18 85 10 119 -23z"/>
<path d="M4035 1911 c-157 -71 -200 -273 -86 -403 140 -159 400 -91 443 115
34 163 -84 307 -251 307 -42 0 -81 -7 -106 -19z m175 -100 c77 -40 105 -143
60 -217 -29 -46 -98 -78 -150 -69 -144 24 -178 217 -50 283 54 27 94 28 140 3z"/>
</g>
</svg>
