<?xml version="1.0" standalone="no"?>
<!DOCTYPE svg PUBLIC "-//W3C//DTD SVG 20010904//EN"
 "http://www.w3.org/TR/2001/REC-SVG-20010904/DTD/svg10.dtd">
<svg version="1.0" xmlns="http://www.w3.org/2000/svg"
 width="512.000000pt" height="512.000000pt" viewBox="0 0 512.000000 512.000000"
 preserveAspectRatio="xMidYMid meet">

<g transform="translate(0.000000,512.000000) scale(0.100000,-0.100000)"
fill="#000000" stroke="none">
<path d="M2679 5105 c-63 -20 -141 -92 -168 -154 -114 -266 -21 -481 209 -481
119 0 200 57 248 173 87 209 53 374 -92 449 -51 26 -138 32 -197 13z m153
-164 c30 -26 32 -33 31 -92 0 -73 -33 -170 -69 -206 -18 -18 -34 -23 -73 -23
-98 0 -131 68 -97 200 20 77 36 104 79 130 46 29 90 26 129 -9z"/>
<path d="M4047 4770 c-66 -17 -116 -49 -199 -128 -151 -144 -286 -345 -451
-672 -118 -232 -180 -333 -249 -403 -156 -158 -258 -98 -258 152 0 64 6 96 37
182 63 179 46 311 -53 398 -54 47 -104 61 -175 50 -98 -16 -174 -92 -215 -215
-29 -90 -27 -329 5 -484 42 -208 17 -282 -118 -347 -150 -72 -355 -17 -531
143 -84 75 -109 86 -151 63 -29 -15 -40 -52 -28 -89 14 -38 140 -147 234 -201
284 -164 614 -112 726 116 45 91 48 160 15 355 -38 223 -33 357 15 452 24 48
72 74 106 59 26 -12 62 -81 63 -119 0 -13 -18 -79 -41 -145 -41 -122 -41 -122
-36 -247 5 -155 27 -222 96 -291 78 -79 176 -89 293 -31 136 68 210 168 410
555 161 314 283 493 419 623 180 169 338 52 230 -171 -30 -63 -61 -97 -296
-330 -144 -143 -290 -295 -323 -338 -125 -158 -182 -282 -182 -392 0 -51 5
-69 30 -109 42 -65 94 -88 204 -87 151 1 331 61 525 174 57 33 129 71 160 83
147 61 317 1 267 -94 -38 -72 -116 -114 -257 -137 -306 -50 -413 -79 -552
-152 -80 -42 -158 -122 -175 -180 -35 -117 7 -237 99 -283 65 -33 224 -43 614
-37 456 7 540 -3 598 -73 32 -37 40 -79 35 -169 -3 -55 -9 -75 -31 -104 -61
-80 -189 -89 -338 -22 -114 51 -150 55 -178 20 -43 -55 -22 -90 84 -143 109
-54 195 -75 293 -70 103 5 160 27 225 87 25 23 55 65 68 94 21 45 24 67 24
172 0 106 -3 126 -24 169 -44 88 -111 139 -228 173 -50 14 -113 16 -473 14
-409 -1 -591 6 -612 27 -6 6 -13 31 -15 57 -5 44 -4 48 39 89 77 73 257 136
496 171 208 30 298 65 379 145 59 58 83 110 83 183 0 98 -47 164 -152 212 -59
27 -164 36 -238 20 -54 -11 -154 -58 -280 -130 -161 -92 -311 -144 -425 -146
-82 -2 -95 5 -95 54 0 122 168 344 474 627 233 215 322 335 356 479 31 130
-26 268 -131 322 -46 23 -139 32 -192 19z"/>
<path d="M1055 4199 c-102 -54 -181 -173 -192 -292 -11 -121 57 -274 177 -401
130 -137 293 -247 658 -446 243 -133 296 -176 308 -251 6 -34 4 -37 -34 -52
-63 -25 -186 -37 -282 -26 -322 34 -387 34 -527 -2 -133 -33 -215 -92 -253
-181 -45 -104 -10 -252 77 -328 87 -76 187 -110 328 -110 152 0 244 33 465
170 169 105 270 130 357 91 34 -16 43 -26 48 -54 9 -49 -1 -90 -42 -169 -95
-182 -254 -289 -613 -413 -268 -92 -399 -161 -506 -265 -152 -148 -170 -287
-53 -401 58 -57 136 -89 231 -97 203 -15 538 130 722 314 39 38 121 137 183
221 119 161 187 234 262 283 61 41 85 37 89 -15 8 -89 -40 -239 -175 -555
-132 -308 -169 -409 -188 -517 -20 -113 -19 -190 5 -295 45 -205 129 -329 255
-378 80 -31 216 -34 290 -6 204 78 341 270 388 545 17 97 10 132 -29 150 -35
15 -47 14 -77 -9 -20 -16 -28 -35 -37 -93 -29 -171 -76 -275 -164 -363 -78
-78 -152 -109 -239 -100 -119 12 -172 62 -219 208 -71 221 -49 338 142 773 51
116 115 278 143 360 49 142 51 155 52 255 0 118 -12 152 -66 191 -52 37 -125
38 -201 2 -104 -49 -183 -125 -331 -320 -195 -258 -265 -321 -451 -409 -135
-64 -256 -97 -336 -91 -81 5 -140 34 -164 79 -18 32 -18 36 -1 67 38 75 142
164 260 224 28 14 142 58 254 97 245 86 326 122 428 190 143 95 247 216 306
353 53 125 41 266 -29 329 -11 9 -44 29 -74 45 -48 24 -66 28 -145 28 -119 -1
-188 -25 -346 -122 -68 -42 -158 -92 -199 -112 -66 -31 -86 -36 -170 -39 -52
-2 -113 1 -136 7 -60 16 -129 66 -149 108 -19 40 -16 112 6 139 19 23 96 59
159 75 67 17 253 16 370 -1 190 -27 371 -9 474 48 75 41 91 69 91 155 -1 82
-21 130 -82 198 -51 56 -89 81 -335 217 -354 198 -452 264 -578 391 -83 84
-137 180 -147 262 -11 93 70 209 146 209 77 0 120 -46 233 -247 46 -81 91
-156 100 -165 42 -42 121 -9 121 50 0 24 -119 253 -176 337 -45 68 -122 135
-175 155 -71 27 -155 26 -207 -1z"/>
<path d="M290 2676 c-112 -31 -186 -89 -230 -181 -25 -52 -30 -75 -30 -137 0
-63 5 -84 30 -135 73 -146 216 -215 395 -191 164 22 256 105 285 257 30 158
-17 278 -137 348 -84 49 -217 66 -313 39z m228 -164 c71 -37 95 -105 72 -202
-23 -97 -73 -129 -202 -131 -117 -2 -197 63 -206 165 -7 91 36 151 131 182 54
18 158 11 205 -14z"/>
<path d="M3550 2415 c-101 -29 -175 -87 -207 -162 -15 -36 -19 -141 -8 -188
27 -107 147 -284 300 -444 239 -248 319 -426 234 -517 -26 -27 -63 -31 -113
-10 -45 19 -58 40 -112 179 -66 168 -202 439 -280 554 -78 117 -179 222 -241
253 -127 63 -240 22 -302 -110 -22 -48 -26 -71 -29 -188 -5 -159 8 -276 53
-478 18 -83 39 -189 45 -235 6 -46 14 -98 16 -116 5 -34 44 -73 74 -73 10 0
29 9 44 21 23 18 26 28 26 77 0 65 -20 191 -55 337 -41 178 -57 313 -54 452 4
132 16 175 55 190 47 18 150 -71 244 -212 74 -110 194 -350 265 -530 52 -133
65 -156 110 -200 35 -36 66 -56 104 -68 59 -19 136 -22 175 -7 34 13 114 87
132 123 46 88 32 219 -37 346 -60 108 -106 167 -252 325 -184 197 -256 315
-257 414 0 47 4 58 30 82 80 75 277 62 547 -35 52 -19 105 -35 117 -35 54 0
87 88 47 124 -27 24 -159 73 -291 107 -143 37 -298 47 -380 24z"/>
<path d="M4189 906 c-60 -21 -108 -67 -142 -136 -30 -60 -32 -72 -32 -165 0
-160 47 -268 151 -347 68 -52 133 -73 224 -72 117 2 209 55 256 147 22 42 30
163 15 224 -19 73 -75 183 -120 235 -90 101 -246 152 -352 114z m167 -160 c28
-13 63 -39 77 -58 61 -79 100 -206 83 -271 -9 -37 -53 -75 -96 -82 -57 -10
-139 17 -182 59 -91 88 -106 284 -27 350 38 33 78 33 145 2z"/>
</g>
</svg>
